g Crystal
v 0.09999999 2 -0.09999999
v -0.09999999 2 -0.09999999
v -0.09999999 0.09999999 -0.09999999
v 0.09999999 0.09999999 -0.09999999
v 0.6 0.09999999 -0.6
v -0.6 0.09999999 -0.6
v -0.6 0 -0.6
v 0.6 0 -0.6
v -0.09999999 2 0.09999999
v 0.09999999 2 0.09999999
v 0.09999999 0.09999999 0.09999999
v -0.09999999 0.09999999 0.09999999
v -0.6 0.09999999 0.6
v 0.6 0.09999999 0.6
v 0.6 0 0.6
v -0.6 0 0.6
v -0.09999999 2 -0.09999999
v -0.09999999 2 0.09999999
v -0.09999999 0.09999999 0.09999999
v -0.09999999 0.09999999 -0.09999999
v -0.6 0.09999999 -0.6
v -0.6 0.09999999 0.6
v -0.6 0 0.6
v -0.6 0 -0.6
v 0.09999999 2 0.09999999
v 0.09999999 2 -0.09999999
v 0.09999999 0.09999999 -0.09999999
v 0.09999999 0.09999999 0.09999999
v 0.6 0.09999999 0.6
v 0.6 0.09999999 -0.6
v 0.6 0 -0.6
v 0.6 0 0.6
v -0.6 0.09999999 -0.6
v 0.6 0.09999999 -0.6
v 0.6 0.09999999 -0.09999999
v -0.6 0.09999999 -0.09999999
v -0.6 0.09999999 0.09999999
v 0.6 0.09999999 0.09999999
v 0.6 0.09999999 0.6
v -0.6 0.09999999 0.6
v -0.6 0.09999999 -0.09999999
v -0.09999999 0.09999999 -0.09999999
v -0.09999999 0.09999999 0.09999999
v -0.6 0.09999999 0.09999999
v 0.09999999 0.09999999 -0.09999999
v 0.6 0.09999999 -0.09999999
v 0.6 0.09999999 0.09999999
v 0.09999999 0.09999999 0.09999999
v -0.09999999 2 -0.09999999
v 0.09999999 2 -0.09999999
v 0.09999999 2 0.09999999
v -0.09999999 2 0.09999999
v -0.6 0 0.6
v 0.6 0 0.6
v 0.6 0 -0.6
v -0.6 0 -0.6
vt 0.5566406 0.09667969
vt 0.5585938 0.09667969
vt 0.5585938 0.078125
vt 0.5566406 0.078125
vt 0.6708984 0.5996094
vt 0.6826172 0.5996094
vt 0.6826172 0.5986328
vt 0.6708984 0.5986328
vt 0.5449219 0.09667969
vt 0.546875 0.09667969
vt 0.546875 0.078125
vt 0.5449219 0.078125
vt 0.6845703 0.5996094
vt 0.6962891 0.5996094
vt 0.6962891 0.5986328
vt 0.6845703 0.5986328
vt 0.5527344 0.09667969
vt 0.5546875 0.09667969
vt 0.5546875 0.078125
vt 0.5527344 0.078125
vt 0.7529297 0.5996094
vt 0.7646484 0.5996094
vt 0.7646484 0.5986328
vt 0.7529297 0.5986328
vt 0.5488281 0.09667969
vt 0.5507813 0.09667969
vt 0.5507813 0.078125
vt 0.5488281 0.078125
vt 0.09667969 0.6025391
vt 0.1083984 0.6025391
vt 0.1083984 0.6015625
vt 0.09667969 0.6015625
vt 0.2333984 0.3574219
vt 0.2451172 0.3574219
vt 0.2451172 0.3525391
vt 0.2333984 0.3525391
vt 0.2470703 0.3574219
vt 0.2587891 0.3574219
vt 0.2587891 0.3525391
vt 0.2470703 0.3525391
vt 0.640625 0.4902344
vt 0.6455078 0.4902344
vt 0.6455078 0.4882813
vt 0.640625 0.4882813
vt 0.6611328 0.4902344
vt 0.6660156 0.4902344
vt 0.6660156 0.4882813
vt 0.6611328 0.4882813
vt 0.2783203 0.5019531
vt 0.2802734 0.5019531
vt 0.2802734 0.5
vt 0.2783203 0.5
vt 0.765625 0.2373047
vt 0.7773438 0.2373047
vt 0.7773438 0.2255859
vt 0.765625 0.2255859
vn 0 0 -1
vn 0 0 -1
vn 0 0 -1
vn 0 0 -1
vn 0 0 -1
vn 0 0 -1
vn 0 0 -1
vn 0 0 -1
vn 0 0 1
vn 0 0 1
vn 0 0 1
vn 0 0 1
vn 0 0 1
vn 0 0 1
vn 0 0 1
vn 0 0 1
vn -1 0 0
vn -1 0 0
vn -1 0 0
vn -1 0 0
vn -1 0 0
vn -1 0 0
vn -1 0 0
vn -1 0 0
vn 1 0 0
vn 1 0 0
vn 1 0 0
vn 1 0 0
vn 1 0 0
vn 1 0 0
vn 1 0 0
vn 1 0 0
vn 0 1 0
vn 0 1 0
vn 0 1 0
vn 0 1 0
vn 0 1 0
vn 0 1 0
vn 0 1 0
vn 0 1 0
vn 0 1 0
vn 0 1 0
vn 0 1 0
vn 0 1 0
vn 0 1 0
vn 0 1 0
vn 0 1 0
vn 0 1 0
vn 0 1 0
vn 0 1 0
vn 0 1 0
vn 0 1 0
vn 0 -1 0
vn 0 -1 0
vn 0 -1 0
vn 0 -1 0
g Crystal_0
f 3/3/3 2/2/2 1/1/1
f 4/4/4 3/3/3 1/1/1
f 7/7/7 6/6/6 5/5/5
f 8/8/8 7/7/7 5/5/5
f 11/11/11 10/10/10 9/9/9
f 12/12/12 11/11/11 9/9/9
f 15/15/15 14/14/14 13/13/13
f 16/16/16 15/15/15 13/13/13
f 19/19/19 18/18/18 17/17/17
f 20/20/20 19/19/19 17/17/17
f 23/23/23 22/22/22 21/21/21
f 24/24/24 23/23/23 21/21/21
f 27/27/27 26/26/26 25/25/25
f 28/28/28 27/27/27 25/25/25
f 31/31/31 30/30/30 29/29/29
f 32/32/32 31/31/31 29/29/29
f 35/35/35 34/34/34 33/33/33
f 36/36/36 35/35/35 33/33/33
f 39/39/39 38/38/38 37/37/37
f 40/40/40 39/39/39 37/37/37
f 43/43/43 42/42/42 41/41/41
f 44/44/44 43/43/43 41/41/41
f 47/47/47 46/46/46 45/45/45
f 48/48/48 47/47/47 45/45/45
f 51/51/51 50/50/50 49/49/49
f 52/52/52 51/51/51 49/49/49
f 55/55/55 54/54/54 53/53/53
f 56/56/56 55/55/55 53/53/53
