g Plate_Quater
v -2.000001 0.09999996 9.536743E-07
v -2.000001 -0.09999996 9.536743E-07
v -2.000001 -0.09999996 -1.999999
v -2.000001 0.09999996 -1.999999
v -2.000001 0.09999996 -1.999999
v -2.000001 -0.09999996 -1.999999
v -9.536743E-07 -0.09999996 -1.999999
v -9.536743E-07 0.09999996 -1.999999
v -9.536743E-07 0.09999996 -1.999999
v -9.536743E-07 -0.09999996 -1.999999
v -9.536743E-07 -0.09999996 9.536743E-07
v -9.536743E-07 0.09999996 9.536743E-07
v -9.536743E-07 0.09999996 9.536743E-07
v -9.536743E-07 -0.09999996 9.536743E-07
v -2.000001 -0.09999996 9.536743E-07
v -2.000001 0.09999996 9.536743E-07
v -2.000001 -0.09999996 9.536743E-07
v -9.536743E-07 -0.09999996 9.536743E-07
v -9.536743E-07 -0.09999996 -1.999999
v -2.000001 -0.09999996 -1.999999
v -9.536743E-07 0.09999996 9.536743E-07
v -2.000001 0.09999996 9.536743E-07
v -2.000001 0.09999996 -1.999999
v -9.536743E-07 0.09999996 -1.999999
vt 0.9770459 0.2211329
vt 0.997006 0.2211329
vt 0.9970059 0.003267974
vt 0.9770459 0.003267974
vt 0.7195609 0.9008716
vt 0.739521 0.9008716
vt 0.739521 0.6830066
vt 0.7195609 0.6830066
vt 0.9770459 0.4455338
vt 0.997006 0.4455338
vt 0.997006 0.2276689
vt 0.9770459 0.2276689
vt 0.7914172 0.6830066
vt 0.7714572 0.6830066
vt 0.7714572 0.9008716
vt 0.7914173 0.9008716
vt 0.9191616 0.2276689
vt 0.7195609 0.2276689
vt 0.7195609 0.4455338
vt 0.9191616 0.4455338
vt 0.7195609 0.003268
vt 0.7195609 0.2211329
vt 0.9191617 0.2211329
vt 0.9191616 0.003267974
vn -1 0 0
vn -1 0 0
vn -1 0 0
vn -1 0 0
vn 0 0 -1
vn 0 0 -1
vn 0 0 -1
vn 0 0 -1
vn 1 0 0
vn 1 0 0
vn 1 0 0
vn 1 0 0
vn 0 0 1
vn 0 0 1
vn 0 0 1
vn 0 0 1
vn 0 -1 0
vn 0 -1 0
vn 0 -1 0
vn 0 -1 0
vn 0 1 0
vn 0 1 0
vn 0 1 0
vn 0 1 0
g Plate_Quater_0
f 3/3/3 2/2/2 1/1/1
f 4/4/4 3/3/3 1/1/1
f 7/7/7 6/6/6 5/5/5
f 8/8/8 7/7/7 5/5/5
f 11/11/11 10/10/10 9/9/9
f 12/12/12 11/11/11 9/9/9
f 15/15/15 14/14/14 13/13/13
f 16/16/16 15/15/15 13/13/13
f 19/19/19 18/18/18 17/17/17
f 20/20/20 19/19/19 17/17/17
f 23/23/23 22/22/22 21/21/21
f 24/24/24 23/23/23 21/21/21
