g Tower4
v -0.3763175 1.442925 -0.3763175
v 0.3763175 1.442925 -0.3763175
v 0.3657869 1.565779 -0.3657869
v -0.3657869 1.565779 -0.3657869
v -0.4101163 1.048616 -0.4101163
v 0.4101163 1.048616 -0.4101163
v 0.3880065 1.306557 -0.3880065
v -0.3880065 1.306557 -0.3880065
v 0.4101163 1.048616 -0.4101163
v 0.4107512 1.341181 0.4107512
v 0.3851908 1.725288 0.3851908
v 0.3880065 1.306557 -0.3880065
v -0.3767999 1.851382 0.3767999
v -0.3763175 1.442925 -0.3763175
v -0.3657869 1.565779 -0.3657869
v -0.3644581 2.036847 0.3644581
v -0.5 0 -0.5
v -0.5 0 0.5
v 0.5 0 0.5
v 0.5 0 -0.5
v 0.3657869 1.565779 -0.3657869
v 0.3644581 2.036847 0.3644581
v -0.3644581 2.036847 0.3644581
v -0.3657869 1.565779 -0.3657869
v -0.4446679 0.8314991 0.4446679
v -0.4438398 0.655185 -0.4438398
v -0.4213143 0.917976 -0.4213143
v -0.4190105 1.217065 0.4190105
v -0.4107512 1.341181 0.4107512
v -0.4101163 1.048616 -0.4101163
v -0.3880065 1.306557 -0.3880065
v -0.3851908 1.725288 0.3851908
v 0.3767999 1.851382 0.3767999
v -0.3767999 1.851382 0.3767999
v -0.3644581 2.036847 0.3644581
v 0.3644581 2.036847 0.3644581
v 0.5 0 -0.5
v 0.5 0 0.5
v 0.4528646 0.7083234 0.4528646
v 0.4546973 0.5285177 -0.4546973
v 0.4438398 0.655185 -0.4438398
v 0.4446679 0.8314991 0.4446679
v 0.4190105 1.217065 0.4190105
v 0.4213143 0.917976 -0.4213143
v 0.3763175 1.442925 -0.3763175
v 0.3767999 1.851382 0.3767999
v 0.3644581 2.036847 0.3644581
v 0.3657869 1.565779 -0.3657869
v -0.5 0 -0.5
v 0.5 0 -0.5
v 0.4546973 0.5285177 -0.4546973
v -0.4546973 0.5285177 -0.4546973
v -0.4438398 0.655185 -0.4438398
v 0.4438398 0.655185 -0.4438398
v 0.4213143 0.917976 -0.4213143
v -0.4213143 0.917976 -0.4213143
v 0.5 0 0.5
v -0.5 0 0.5
v -0.4528646 0.7083234 0.4528646
v 0.4528646 0.7083234 0.4528646
v 0.4446679 0.8314991 0.4446679
v -0.4446679 0.8314991 0.4446679
v -0.4190105 1.217065 0.4190105
v 0.4190105 1.217065 0.4190105
v 0.4107512 1.341181 0.4107512
v -0.4107512 1.341181 0.4107512
v -0.3851908 1.725288 0.3851908
v 0.3851908 1.725288 0.3851908
v 0.4446679 0.8314991 0.4446679
v 0.5685707 0.793679 0.5686377
v -0.5685707 0.793679 0.5686377
v -0.4446679 0.8314991 0.4446679
v 0.5685707 0.793679 0.5686377
v 0.4528646 0.7083234 0.4528646
v -0.4528646 0.7083234 0.4528646
v -0.5685707 0.793679 0.5686377
v 0.4107512 1.341181 0.4107512
v 0.525639 1.318611 0.5257504
v -0.525639 1.318611 0.5257503
v -0.4107512 1.341181 0.4107512
v 0.525639 1.318611 0.5257504
v 0.4190105 1.217065 0.4190105
v -0.4190105 1.217065 0.4190105
v -0.525639 1.318611 0.5257503
v 0.3767999 1.851382 0.3767999
v 0.4827073 1.843542 0.4828631
v -0.4827073 1.843542 0.4828631
v -0.3767999 1.851382 0.3767999
v 0.4827073 1.843542 0.4828631
v 0.3851908 1.725288 0.3851908
v -0.3851908 1.725288 0.3851908
v -0.4827073 1.843542 0.4828631
v 0.4438398 0.655185 -0.4438398
v 0.569207 0.5680836 -0.56914
v 0.5685707 0.793679 0.5686377
v 0.4446679 0.8314991 0.4446679
v 0.569207 0.5680836 -0.56914
v 0.4546973 0.5285177 -0.4546973
v 0.4528646 0.7083234 0.4528646
v 0.5685707 0.793679 0.5686377
v 0.4101163 1.048616 -0.4101163
v 0.5266962 0.9438087 -0.5265848
v 0.525639 1.318611 0.5257504
v 0.4107512 1.341181 0.4107512
v 0.5266962 0.9438087 -0.5265848
v 0.4213143 0.917976 -0.4213143
v 0.4190105 1.217065 0.4190105
v 0.525639 1.318611 0.5257504
v 0.3763175 1.442925 -0.3763175
v 0.4841854 1.319534 -0.4840297
v 0.4827073 1.843542 0.4828631
v 0.3767999 1.851382 0.3767999
v 0.4841854 1.319534 -0.4840297
v 0.3880065 1.306557 -0.3880065
v 0.3851908 1.725288 0.3851908
v 0.4827073 1.843542 0.4828631
v -0.4438398 0.655185 -0.4438398
v -0.569207 0.5680836 -0.56914
v 0.569207 0.5680836 -0.56914
v 0.4438398 0.655185 -0.4438398
v -0.569207 0.5680836 -0.56914
v -0.4546973 0.5285177 -0.4546973
v 0.4546973 0.5285177 -0.4546973
v 0.569207 0.5680836 -0.56914
v -0.4101163 1.048616 -0.4101163
v -0.5266962 0.9438087 -0.5265848
v 0.5266962 0.9438087 -0.5265848
v 0.4101163 1.048616 -0.4101163
v -0.5266962 0.9438087 -0.5265848
v -0.4213143 0.917976 -0.4213143
v 0.4213143 0.917976 -0.4213143
v 0.5266962 0.9438087 -0.5265848
v -0.3763175 1.442925 -0.3763175
v -0.4841854 1.319534 -0.4840297
v 0.4841854 1.319534 -0.4840297
v 0.3763175 1.442925 -0.3763175
v -0.4841854 1.319534 -0.4840297
v -0.3880065 1.306557 -0.3880065
v 0.3880065 1.306557 -0.3880065
v 0.4841854 1.319534 -0.4840297
v -0.4446679 0.8314991 0.4446679
v -0.5685707 0.793679 0.5686377
v -0.569207 0.5680836 -0.56914
v -0.4438398 0.655185 -0.4438398
v -0.5685707 0.793679 0.5686377
v -0.4528646 0.7083234 0.4528646
v -0.4546973 0.5285177 -0.4546973
v -0.569207 0.5680836 -0.56914
v -0.4107512 1.341181 0.4107512
v -0.525639 1.318611 0.5257503
v -0.5266962 0.9438087 -0.5265848
v -0.4101163 1.048616 -0.4101163
v -0.525639 1.318611 0.5257503
v -0.4190105 1.217065 0.4190105
v -0.4213143 0.917976 -0.4213143
v -0.5266962 0.9438087 -0.5265848
v -0.3767999 1.851382 0.3767999
v -0.4827073 1.843542 0.4828631
v -0.4841854 1.319534 -0.4840297
v -0.3763175 1.442925 -0.3763175
v -0.4827073 1.843542 0.4828631
v -0.3851908 1.725288 0.3851908
v -0.3880065 1.306557 -0.3880065
v -0.4841854 1.319534 -0.4840297
v -0.5 0 0.5
v -0.5 0 -0.5
v -0.4546973 0.5285177 -0.4546973
v -0.4528646 0.7083234 0.4528646
vt 0.603126 0.25
vt 0.603126 0.5
vt 0.6225492 0.5
vt 0.6225492 0.25
vt 0.5407859 0.25
vt 0.5407859 0.5
vt 0.5815662 0.5
vt 0.5815662 0.25
vt 0.5407859 0.5
vt 0.5396148 0.75
vt 0.5867596 0.75
vt 0.5815662 0.5
vt 0.6022362 0
vt 0.603126 0.25
vt 0.6225492 0.25
vt 0.625 0
vt 0.125 0.5
vt 0.125 0.75
vt 0.375 0.75
vt 0.375 0.5
vt 0.6225492 0.5
vt 0.625 0.75
vt 0.875 0.75
vt 0.8754558 0.4972828
vt 0.4770571 0
vt 0.4785846 0.25
vt 0.5201317 0.25
vt 0.524381 0
vt 0.5396149 0
vt 0.5407859 0.25
vt 0.5815662 0.25
vt 0.5867596 0
vt 0.6022362 0.75
vt 0.6022362 1
vt 0.625 1
vt 0.625 0.75
vt 0.375 0.5
vt 0.375 0.75
vt 0.4619386 0.75
vt 0.4585585 0.5
vt 0.4785846 0.5
vt 0.4770571 0.75
vt 0.524381 0.75
vt 0.5201317 0.5
vt 0.603126 0.5
vt 0.6022362 0.75
vt 0.625 0.75
vt 0.6225492 0.5
vt 0.375 0.25
vt 0.375 0.5
vt 0.4585585 0.5
vt 0.4585585 0.25
vt 0.4785846 0.25
vt 0.4785846 0.5
vt 0.5201317 0.5
vt 0.5201317 0.25
vt 0.375 0.75
vt 0.375 1
vt 0.4619387 1
vt 0.4619386 0.75
vt 0.4770571 0.75
vt 0.4770571 1
vt 0.524381 1
vt 0.524381 0.75
vt 0.5396149 0.75
vt 0.5396149 1
vt 0.5867596 1
vt 0.5867596 0.75
vt 0.4770571 0.75
vt 0.4694979 0.75
vt 0.4694979 1
vt 0.4770571 1
vt 0.4694979 0.75
vt 0.4619386 0.75
vt 0.4619387 1
vt 0.4694979 1
vt 0.5396149 0.75
vt 0.5319979 0.75
vt 0.5319979 1
vt 0.5396149 1
vt 0.5319979 0.75
vt 0.524381 0.75
vt 0.524381 1
vt 0.5319979 1
vt 0.6022362 0.75
vt 0.5944979 0.75
vt 0.5944979 1
vt 0.6022362 1
vt 0.5944979 0.75
vt 0.5867596 0.75
vt 0.5867596 1
vt 0.5944979 1
vt 0.4785846 0.5
vt 0.4685715 0.5
vt 0.4694979 0.75
vt 0.4770571 0.75
vt 0.4685715 0.5
vt 0.4585585 0.5
vt 0.4619386 0.75
vt 0.4694979 0.75
vt 0.5407859 0.5
vt 0.5304588 0.5
vt 0.5319979 0.75
vt 0.5396148 0.75
vt 0.5304588 0.5
vt 0.5201317 0.5
vt 0.524381 0.75
vt 0.5319979 0.75
vt 0.603126 0.5
vt 0.5923461 0.5
vt 0.5944979 0.75
vt 0.6022362 0.75
vt 0.5923461 0.5
vt 0.5815662 0.5
vt 0.5867596 0.75
vt 0.5944979 0.75
vt 0.4785846 0.25
vt 0.4685715 0.25
vt 0.4685715 0.5
vt 0.4785846 0.5
vt 0.4685715 0.25
vt 0.4585585 0.25
vt 0.4585585 0.5
vt 0.4685715 0.5
vt 0.5407859 0.25
vt 0.5304588 0.25
vt 0.5304588 0.5
vt 0.5407859 0.5
vt 0.5304588 0.25
vt 0.5201317 0.25
vt 0.5201317 0.5
vt 0.5304588 0.5
vt 0.603126 0.25
vt 0.5923461 0.25
vt 0.5923461 0.5
vt 0.603126 0.5
vt 0.5923461 0.25
vt 0.5815662 0.25
vt 0.5815662 0.5
vt 0.5923461 0.5
vt 0.4770571 0
vt 0.4694979 0
vt 0.4685715 0.25
vt 0.4785846 0.25
vt 0.4694979 0
vt 0.4619387 0
vt 0.4585585 0.25
vt 0.4685715 0.25
vt 0.5396149 0
vt 0.5319979 0
vt 0.5304588 0.25
vt 0.5407859 0.25
vt 0.5319979 0
vt 0.524381 0
vt 0.5201317 0.25
vt 0.5304588 0.25
vt 0.6022362 0
vt 0.5944979 0
vt 0.5923461 0.25
vt 0.603126 0.25
vt 0.5944979 0
vt 0.5867596 0
vt 0.5815662 0.25
vt 0.5923461 0.25
vt 0.375 0
vt 0.375 0.25
vt 0.4585585 0.25
vt 0.4619387 0
vn 0 0.08540335 -0.9963464
vn 0 0.08540335 -0.9963464
vn 0 0.08540335 -0.9963464
vn 0 0.08540335 -0.9963464
vn 0 0.08540334 -0.9963464
vn 0 0.08540334 -0.9963464
vn 0 0.08540334 -0.9963464
vn 0 0.08540334 -0.9963464
vn 0.99677 0.07383756 -0.03158386
vn 0.99677 0.07383756 -0.03158386
vn 0.99677 0.07383756 -0.03158386
vn 0.99677 0.07383756 -0.03158386
vn -0.9963514 0.07366019 -0.04310664
vn -0.9963514 0.07366019 -0.04310664
vn -0.9963514 0.07366019 -0.04310664
vn -0.9963514 0.07366019 -0.04310664
vn 0 -1 0
vn 0 -1 0
vn 0 -1 0
vn 0 -1 0
vn 0 0.8403268 -0.54208
vn 0 0.8403268 -0.54208
vn 0 0.8403268 -0.54208
vn 0 0.8403268 -0.54208
vn -0.9970674 0.07400333 -0.01949875
vn -0.9970674 0.07400333 -0.01949875
vn -0.9970674 0.07400333 -0.01949875
vn -0.9970674 0.07400333 -0.01949875
vn -0.99677 0.0738375 -0.03158367
vn -0.99677 0.0738375 -0.03158367
vn -0.99677 0.0738375 -0.03158367
vn -0.99677 0.0738375 -0.03158367
vn 0 0.06639799 0.9977932
vn 0 0.06639799 0.9977932
vn 0 0.06639799 0.9977932
vn 0 0.06639799 0.9977932
vn 0.9972012 0.07451906 -0.006066107
vn 0.9972012 0.07451906 -0.006066107
vn 0.9972012 0.07451906 -0.006066107
vn 0.9972012 0.07451906 -0.006066107
vn 0.9970674 0.07400326 -0.01949872
vn 0.9970674 0.07400326 -0.01949872
vn 0.9970674 0.07400326 -0.01949872
vn 0.9970674 0.07400326 -0.01949872
vn 0.9963514 0.07366019 -0.04310664
vn 0.9963514 0.07366019 -0.04310664
vn 0.9963514 0.07366019 -0.04310664
vn 0.9963514 0.07366019 -0.04310664
vn 0 0.08540344 -0.9963464
vn 0 0.08540344 -0.9963464
vn 0 0.08540344 -0.9963464
vn 0 0.08540344 -0.9963464
vn 0 0.08540317 -0.9963464
vn 0 0.08540317 -0.9963464
vn 0 0.08540317 -0.9963464
vn 0 0.08540317 -0.9963464
vn 0 0.06639811 0.9977932
vn 0 0.06639811 0.9977932
vn 0 0.06639811 0.9977932
vn 0 0.06639811 0.9977932
vn 0 0.06639811 0.9977932
vn 0 0.06639811 0.9977932
vn 0 0.06639811 0.9977932
vn 0 0.06639811 0.9977932
vn 0 0.06639791 0.9977933
vn 0 0.06639791 0.9977933
vn 0 0.06639791 0.9977933
vn 0 0.06639791 0.9977933
vn 0 0.9564799 0.2917984
vn 0 0.9564799 0.2917984
vn 0 0.9564799 0.2917984
vn 0 0.9564799 0.2917984
vn 0 -0.8048925 0.5934206
vn 0 -0.8048925 0.5934206
vn 0 -0.8048925 0.5934206
vn 0 -0.8048925 0.5934206
vn 0 0.981279 0.1925916
vn 0 0.981279 0.1925916
vn 0 0.981279 0.1925916
vn 0 0.981279 0.1925916
vn 0 -0.7245157 0.6892582
vn 0 -0.7245157 0.6892582
vn 0 -0.7245157 0.6892582
vn 0 -0.7245157 0.6892582
vn 0 0.9972795 0.0737132
vn 0 0.9972795 0.0737132
vn 0 0.9972795 0.0737132
vn 0 0.9972795 0.0737132
vn 0 -0.63682 0.7710125
vn 0 -0.63682 0.7710125
vn 0 -0.63682 0.7710125
vn 0 -0.63682 0.7710125
vn 0.4403988 0.8806383 -0.1747145
vn 0.4403988 0.8806383 -0.1747145
vn 0.4403988 0.8806383 -0.1747145
vn 0.4403988 0.8806383 -0.1747145
vn 0.4690378 -0.8662166 0.1722567
vn 0.4690378 -0.8662166 0.1722567
vn 0.4690378 -0.8662166 0.1722567
vn 0.4690378 -0.8662166 0.1722567
vn 0.4587494 0.8370633 -0.2981175
vn 0.4587494 0.8370633 -0.2981175
vn 0.4587494 0.8370633 -0.2981175
vn 0.4587494 0.8370633 -0.2981175
vn 0.4909108 -0.8204614 0.2930011
vn 0.4909108 -0.8204614 0.2930011
vn 0.4909108 -0.8204614 0.2930011
vn 0.4909108 -0.8204614 0.2930011
vn 0.4724682 0.7749269 -0.4198356
vn 0.4724682 0.7749269 -0.4198356
vn 0.4724682 0.7749269 -0.4198356
vn 0.4724682 0.7749269 -0.4198356
vn 0.508932 -0.7563391 0.4110225
vn 0.508932 -0.7563391 0.4110225
vn 0.508932 -0.7563391 0.4110225
vn 0.508932 -0.7563391 0.4110225
vn 0 0.8211014 -0.5707823
vn 0 0.8211014 -0.5707823
vn 0 0.8211014 -0.5707823
vn 0 0.8211014 -0.5707823
vn 0 -0.9451108 -0.3267501
vn 0 -0.9451108 -0.3267501
vn 0 -0.9451108 -0.3267501
vn 0 -0.9451108 -0.3267501
vn 0 0.7433384 -0.6689156
vn 0 0.7433384 -0.6689156
vn 0 0.7433384 -0.6689156
vn 0 0.7433384 -0.6689156
vn 0 -0.971186 -0.2383223
vn 0 -0.971186 -0.2383223
vn 0 -0.971186 -0.2383223
vn 0 -0.971186 -0.2383223
vn 0 0.6576213 -0.7533487
vn 0 0.6576213 -0.7533487
vn 0 0.6576213 -0.7533487
vn 0 0.6576213 -0.7533487
vn 0 -0.9909914 -0.1339263
vn 0 -0.9909914 -0.1339263
vn 0 -0.9909914 -0.1339263
vn 0 -0.9909914 -0.1339263
vn -0.4403988 0.8806383 -0.1747145
vn -0.4403988 0.8806383 -0.1747145
vn -0.4403988 0.8806383 -0.1747145
vn -0.4403988 0.8806383 -0.1747145
vn -0.469038 -0.8662164 0.1722566
vn -0.469038 -0.8662164 0.1722566
vn -0.469038 -0.8662164 0.1722566
vn -0.469038 -0.8662164 0.1722566
vn -0.4587488 0.8370634 -0.2981177
vn -0.4587488 0.8370634 -0.2981177
vn -0.4587488 0.8370634 -0.2981177
vn -0.4587488 0.8370634 -0.2981177
vn -0.4909108 -0.8204613 0.2930013
vn -0.4909108 -0.8204613 0.2930013
vn -0.4909108 -0.8204613 0.2930013
vn -0.4909108 -0.8204613 0.2930013
vn -0.4724672 0.7749274 -0.419836
vn -0.4724672 0.7749274 -0.419836
vn -0.4724672 0.7749274 -0.419836
vn -0.4724672 0.7749274 -0.419836
vn -0.508932 -0.7563391 0.4110225
vn -0.508932 -0.7563391 0.4110225
vn -0.508932 -0.7563391 0.4110225
vn -0.508932 -0.7563391 0.4110225
vn -0.9972012 0.07451906 -0.006066139
vn -0.9972012 0.07451906 -0.006066139
vn -0.9972012 0.07451906 -0.006066139
vn -0.9972012 0.07451906 -0.006066139
g Tower4_0
f 3/3/3 2/2/2 1/1/1
f 4/4/4 3/3/3 1/1/1
f 7/7/7 6/6/6 5/5/5
f 8/8/8 7/7/7 5/5/5
f 11/11/11 10/10/10 9/9/9
f 12/12/12 11/11/11 9/9/9
f 15/15/15 14/14/14 13/13/13
f 16/16/16 15/15/15 13/13/13
f 19/19/19 18/18/18 17/17/17
f 20/20/20 19/19/19 17/17/17
f 23/23/23 22/22/22 21/21/21
f 24/24/24 23/23/23 21/21/21
f 27/27/27 26/26/26 25/25/25
f 28/28/28 27/27/27 25/25/25
f 31/31/31 30/30/30 29/29/29
f 32/32/32 31/31/31 29/29/29
f 35/35/35 34/34/34 33/33/33
f 36/36/36 35/35/35 33/33/33
f 39/39/39 38/38/38 37/37/37
f 40/40/40 39/39/39 37/37/37
f 43/43/43 42/42/42 41/41/41
f 44/44/44 43/43/43 41/41/41
f 47/47/47 46/46/46 45/45/45
f 48/48/48 47/47/47 45/45/45
f 51/51/51 50/50/50 49/49/49
f 52/52/52 51/51/51 49/49/49
f 55/55/55 54/54/54 53/53/53
f 56/56/56 55/55/55 53/53/53
f 59/59/59 58/58/58 57/57/57
f 60/60/60 59/59/59 57/57/57
f 63/63/63 62/62/62 61/61/61
f 64/64/64 63/63/63 61/61/61
f 67/67/67 66/66/66 65/65/65
f 68/68/68 67/67/67 65/65/65
f 71/71/71 70/70/70 69/69/69
f 72/72/72 71/71/71 69/69/69
f 75/75/75 74/74/74 73/73/73
f 76/76/76 75/75/75 73/73/73
f 79/79/79 78/78/78 77/77/77
f 80/80/80 79/79/79 77/77/77
f 83/83/83 82/82/82 81/81/81
f 84/84/84 83/83/83 81/81/81
f 87/87/87 86/86/86 85/85/85
f 88/88/88 87/87/87 85/85/85
f 91/91/91 90/90/90 89/89/89
f 92/92/92 91/91/91 89/89/89
f 95/95/95 94/94/94 93/93/93
f 96/96/96 95/95/95 93/93/93
f 99/99/99 98/98/98 97/97/97
f 100/100/100 99/99/99 97/97/97
f 103/103/103 102/102/102 101/101/101
f 104/104/104 103/103/103 101/101/101
f 107/107/107 106/106/106 105/105/105
f 108/108/108 107/107/107 105/105/105
f 111/111/111 110/110/110 109/109/109
f 112/112/112 111/111/111 109/109/109
f 115/115/115 114/114/114 113/113/113
f 116/116/116 115/115/115 113/113/113
f 119/119/119 118/118/118 117/117/117
f 120/120/120 119/119/119 117/117/117
f 123/123/123 122/122/122 121/121/121
f 124/124/124 123/123/123 121/121/121
f 127/127/127 126/126/126 125/125/125
f 128/128/128 127/127/127 125/125/125
f 131/131/131 130/130/130 129/129/129
f 132/132/132 131/131/131 129/129/129
f 135/135/135 134/134/134 133/133/133
f 136/136/136 135/135/135 133/133/133
f 139/139/139 138/138/138 137/137/137
f 140/140/140 139/139/139 137/137/137
f 143/143/143 142/142/142 141/141/141
f 144/144/144 143/143/143 141/141/141
f 147/147/147 146/146/146 145/145/145
f 148/148/148 147/147/147 145/145/145
f 151/151/151 150/150/150 149/149/149
f 152/152/152 151/151/151 149/149/149
f 155/155/155 154/154/154 153/153/153
f 156/156/156 155/155/155 153/153/153
f 159/159/159 158/158/158 157/157/157
f 160/160/160 159/159/159 157/157/157
f 163/163/163 162/162/162 161/161/161
f 164/164/164 163/163/163 161/161/161
f 167/167/167 166/166/166 165/165/165
f 168/168/168 167/167/167 165/165/165
